<svg width="20" height="20" viewBox="0 0 20 20" fill="none" xmlns="http://www.w3.org/2000/svg">
<path d="M19.1533 0.531666C19.1719 0.453912 19.1676 0.37247 19.1411 0.297053C19.1147 0.221637 19.0671 0.155429 19.004 0.106326C18.9409 0.0572229 18.8651 0.027297 18.7854 0.0201172C18.7058 0.0129374 18.6258 0.0288069 18.555 0.065833L1.48584 9.01583C1.29697 9.11539 1.13761 9.26286 1.02373 9.44344C0.909845 9.62403 0.845454 9.83139 0.837012 10.0447C0.82857 10.2581 0.876373 10.4699 0.975628 10.6589C1.07488 10.8479 1.2221 11.0075 1.4025 11.1217L5.2025 13.5233C5.24069 13.5476 5.28575 13.5588 5.33085 13.5552C5.37595 13.5516 5.41866 13.5334 5.4525 13.5033L15.5833 4.44667C15.6219 4.41014 15.673 4.38978 15.7261 4.38978C15.7792 4.38977 15.8302 4.41012 15.8688 4.44664C15.9073 4.48316 15.9304 4.53307 15.9333 4.58609C15.9361 4.63911 15.9186 4.69121 15.8842 4.73167L7.78834 14.8867C7.77011 14.9096 7.75692 14.936 7.74961 14.9644C7.7423 14.9927 7.74104 15.0223 7.74592 15.0511C7.75079 15.08 7.76169 15.1075 7.7779 15.1318C7.79411 15.1562 7.81527 15.1769 7.84 15.1925L13.2 18.5833C13.3631 18.6861 13.5484 18.7485 13.7405 18.7653C13.9326 18.7821 14.1259 18.7528 14.3043 18.6798C14.4828 18.6069 14.6413 18.4924 14.7667 18.3459C14.892 18.1994 14.9806 18.0251 15.025 17.8375L19.1533 0.531666Z" fill="white"/>
<path d="M6.57083 15.985C6.53927 15.9651 6.50294 15.954 6.46563 15.9528C6.42832 15.9516 6.39137 15.9605 6.35864 15.9784C6.3259 15.9964 6.29856 16.0228 6.27946 16.0548C6.26036 16.0869 6.25018 16.1235 6.25 16.1608C6.25 17.0408 6.25 19.1483 6.25 19.1483C6.25004 19.3131 6.29893 19.4742 6.3905 19.6112C6.48207 19.7482 6.6122 19.855 6.76445 19.9181C6.9167 19.9811 7.08423 19.9976 7.24586 19.9655C7.40749 19.9333 7.55596 19.854 7.6725 19.7375L9.35417 18.0567C9.37611 18.0345 9.39282 18.0077 9.40308 17.9783C9.41333 17.9488 9.41687 17.9174 9.41344 17.8864C9.41 17.8554 9.39968 17.8256 9.38322 17.7991C9.36677 17.7726 9.3446 17.7502 9.31833 17.7333L6.57083 15.985Z" fill="white"/>
</svg>
